<?xml version="1.0" standalone="no"?>
<!DOCTYPE svg PUBLIC "-//W3C//DTD SVG 20010904//EN"
 "http://www.w3.org/TR/2001/REC-SVG-20010904/DTD/svg10.dtd">
<svg version="1.0" xmlns="http://www.w3.org/2000/svg"
 width="2000.000000pt" height="2000.000000pt" viewBox="0 0 2000.000000 2000.000000"
 preserveAspectRatio="xMidYMid meet">
<metadata>
Created by potrace 1.16, written by Peter Selinger 2001-2019
</metadata>
<g transform="translate(0.000000,2000.000000) scale(0.100000,-0.100000)"
fill="#000000" stroke="none">
<path d="M9485 19109 c-682 -40 -1390 -163 -2045 -354 -1057 -309 -2045 -803
-2922 -1463 -1348 -1014 -2389 -2381 -3005 -3947 -155 -391 -307 -880 -394
-1265 -174 -766 -245 -1410 -237 -2160 3 -329 3 -336 26 -372 40 -64 119 -98
186 -80 37 11 1791 1146 1839 1190 35 33 40 55 72 290 141 1063 543 2112 1152
3011 622 920 1459 1684 2430 2220 2024 1116 4457 1174 6522 156 201 -99 427
-221 436 -234 6 -10 -190 -140 -925 -615 -366 -236 -543 -357 -561 -381 -32
-42 -37 -72 -79 -495 -17 -168 -71 -699 -121 -1180 -50 -481 -96 -936 -104
-1010 -55 -570 -628 -6069 -633 -6082 -6 -14 -341 222 -1782 1252 -2173 1553
-2353 1683 -3255 2340 -447 325 -736 530 -763 538 -31 11 -52 12 -82 4 -24 -6
-809 -506 -2031 -1293 -1560 -1006 -1996 -1292 -2014 -1319 -48 -74 -47 -88
46 -405 314 -1078 800 -2051 1467 -2937 843 -1120 1933 -2033 3180 -2661 1126
-568 2342 -892 3627 -967 219 -13 751 -13 970 0 715 42 1406 160 2075 355
1057 309 2045 803 2922 1463 1120 843 2033 1933 2661 3180 568 1126 892 2342
967 3627 13 219 13 751 0 970 -66 1128 -326 2213 -775 3225 -137 310 -354 731
-403 783 -38 40 -77 59 -127 59 -48 0 -77 -13 -167 -75 -35 -24 -250 -171
-478 -327 -228 -156 -491 -336 -585 -400 -93 -64 -204 -140 -245 -168 -94 -64
-115 -97 -114 -177 0 -56 8 -75 105 -271 981 -1966 986 -4274 13 -6245 -263
-533 -548 -971 -923 -1420 -1176 -1410 -2887 -2315 -4711 -2493 -1535 -150
-3036 191 -4364 991 -1038 626 -1927 1552 -2513 2618 -73 132 -135 256 -131
259 2 2 269 181 595 399 l592 397 1026 -741 c895 -645 1412 -1013 3025 -2149
990 -697 1783 -1259 1845 -1306 138 -107 237 -134 316 -88 33 20 2019 1580
2126 1671 61 52 78 94 88 225 8 98 117 1051 570 4983 184 1601 354 3070 376
3265 23 195 44 358 47 361 4 3 270 187 592 409 1195 824 2016 1394 2043 1419
58 54 63 157 11 228 -55 73 -323 362 -504 543 -688 686 -1466 1249 -2328 1683
-1126 568 -2342 892 -3627 967 -198 11 -797 11 -1000 -1z"/>
</g>
</svg>
