<?xml version="1.0" standalone="no"?>
<!DOCTYPE svg PUBLIC "-//W3C//DTD SVG 20010904//EN"
 "http://www.w3.org/TR/2001/REC-SVG-20010904/DTD/svg10.dtd">
<svg version="1.0" xmlns="http://www.w3.org/2000/svg"
 width="2000.000000pt" height="2000.000000pt" viewBox="0 0 2000.000000 2000.000000"
 preserveAspectRatio="xMidYMid meet">
<metadata>
Created by potrace 1.16, written by Peter Selinger 2001-2019
</metadata>
<g transform="translate(0.000000,2000.000000) scale(0.100000,-0.100000)"
fill="#000000" stroke="none">
<path d="M9485 19199 c-1419 -84 -2849 -507 -4052 -1198 -1108 -637 -2041
-1458 -2790 -2456 -221 -294 -456 -651 -644 -978 -698 -1215 -1115 -2633
-1199 -4082 -13 -232 -13 -830 1 -897 21 -104 97 -182 203 -207 104 -25 85
-36 950 527 1077 700 1038 674 1068 718 32 48 42 91 73 328 161 1204 674 2407
1431 3358 872 1095 1988 1875 3311 2314 1380 458 2946 458 4326 0 212 -70 453
-163 652 -251 152 -67 565 -274 565 -284 0 -3 -11 -13 -23 -21 -13 -8 -321
-208 -685 -444 -728 -472 -706 -455 -731 -574 -6 -29 -27 -209 -46 -400 -20
-191 -76 -741 -126 -1222 -50 -481 -96 -938 -104 -1015 -34 -348 -615 -5928
-617 -5931 -2 -1 -770 546 -1708 1216 -2059 1472 -2274 1626 -3160 2271 -382
278 -716 520 -741 538 -25 18 -72 39 -103 47 -117 31 32 120 -2145 -1284
-1087 -701 -1991 -1285 -2009 -1299 -55 -41 -89 -97 -101 -165 -13 -73 -2
-124 92 -438 185 -614 419 -1187 692 -1696 444 -824 979 -1547 1620 -2189 578
-578 1219 -1067 1948 -1486 1215 -698 2633 -1115 4082 -1199 219 -13 751 -13
970 0 1449 84 2867 501 4082 1199 1108 637 2041 1458 2790 2456 221 294 456
651 644 978 698 1215 1115 2633 1199 4082 13 219 13 751 0 970 -75 1295 -409
2543 -981 3675 -203 401 -234 443 -354 474 -122 31 -44 80 -1467 -897 -225
-155 -246 -177 -268 -278 -18 -81 -3 -133 100 -339 600 -1202 835 -2477 705
-3820 -99 -1015 -430 -2004 -973 -2910 -559 -930 -1410 -1783 -2337 -2342
-1419 -856 -3014 -1178 -4655 -942 -1109 159 -2239 632 -3145 1314 -716 539
-1342 1230 -1789 1974 -106 176 -229 403 -224 415 1 6 241 170 532 366 518
347 530 354 554 339 13 -8 443 -318 955 -688 513 -369 1108 -796 1322 -947
522 -369 1569 -1107 2890 -2037 308 -217 571 -404 585 -417 14 -12 68 -52 120
-87 159 -108 270 -120 389 -44 110 71 2150 1689 2176 1726 31 44 51 124 60
235 8 97 131 1170 570 4980 184 1601 351 3050 370 3220 20 171 38 320 40 332
4 16 170 136 588 424 1731 1196 2038 1411 2064 1450 39 59 52 132 35 203 -17
76 -39 107 -218 306 -937 1042 -2146 1880 -3459 2397 -906 357 -1904 575
-2900 633 -198 11 -797 11 -1000 -1z"/>
</g>
</svg>
