<?xml version="1.0" standalone="no"?>
<!DOCTYPE svg PUBLIC "-//W3C//DTD SVG 20010904//EN"
 "http://www.w3.org/TR/2001/REC-SVG-20010904/DTD/svg10.dtd">
<svg version="1.0" xmlns="http://www.w3.org/2000/svg"
 width="30px" height="30px" viewBox="0 0 1043.000000 1043.000000"
 preserveAspectRatio="xMidYMid meet">
<metadata>
Created by potrace 1.16, written by Peter Selinger 2001-2019
</metadata>
<g transform="translate(0.000000,1043.000000) scale(0.100000,-0.100000)"
fill="#ff588e" stroke="#000000" stroke-width="8">
<path d="M4900 9880 c-300 -22 -515 -56 -815 -130 -729 -179 -1404 -534 -1972
-1038 -706 -625 -1209 -1457 -1433 -2367 -78 -318 -109 -522 -131 -860 -19
-303 6 -836 41 -858 12 -7 53 15 167 89 84 55 192 124 240 155 48 31 169 109
269 173 l181 116 7 162 c8 184 29 405 50 523 121 672 400 1276 825 1785 628
752 1533 1229 2526 1331 251 26 671 14 935 -27 325 -50 687 -159 990 -298 189
-87 433 -223 427 -239 -4 -12 -184 -133 -522 -352 -102 -66 -219 -141 -259
-167 l-74 -48 -11 -92 c-6 -51 -31 -302 -56 -558 -25 -256 -52 -519 -60 -585
-9 -66 -38 -347 -65 -625 -28 -278 -52 -516 -55 -530 -3 -14 -27 -252 -55
-530 -28 -278 -57 -561 -65 -630 -8 -69 -37 -349 -65 -624 -27 -274 -51 -501
-54 -503 -3 -3 -22 8 -43 23 -95 69 -151 109 -333 239 -107 76 -217 155 -245
175 -62 46 -329 236 -435 310 -65 46 -812 580 -902 645 -143 103 -368 266
-401 289 -23 16 -125 90 -227 164 -102 75 -207 152 -235 172 -27 20 -99 72
-160 117 -60 44 -115 83 -122 87 -13 7 -56 -17 -238 -136 -71 -46 -202 -131
-290 -187 -88 -57 -182 -118 -210 -136 -27 -18 -95 -62 -150 -97 -55 -35 -256
-165 -447 -289 -398 -257 -446 -287 -601 -386 -63 -40 -120 -80 -127 -88 -10
-13 -8 -33 15 -113 457 -1610 1741 -2854 3363 -3261 404 -101 687 -135 1137
-135 451 0 739 34 1140 136 1676 423 2970 1717 3393 3393 102 401 136 689 136
1140 0 233 -5 362 -17 475 -74 674 -277 1300 -607 1870 -91 158 -118 193 -138
185 -14 -5 -718 -469 -735 -484 -4 -4 23 -56 59 -117 224 -371 404 -857 479
-1291 73 -425 67 -943 -16 -1358 -259 -1301 -1162 -2358 -2404 -2815 -535
-196 -1108 -266 -1698 -205 -480 50 -971 204 -1402 442 -645 355 -1157 873
-1507 1522 -43 80 -78 149 -78 152 0 6 700 478 721 487 5 2 53 -30 109 -70 56
-40 136 -98 179 -128 78 -55 544 -392 696 -502 85 -62 137 -99 385 -273 85
-60 178 -125 205 -145 28 -20 98 -70 156 -111 58 -41 128 -90 155 -109 27 -19
123 -86 214 -150 159 -112 237 -167 428 -302 48 -34 130 -91 182 -128 196
-137 377 -266 423 -302 27 -21 54 -38 60 -38 7 0 42 24 78 53 36 28 146 115
244 192 98 77 239 188 314 248 75 59 161 126 191 150 288 225 289 225 294 270
14 106 39 321 76 662 22 204 47 420 55 480 8 61 38 313 65 560 27 248 52 461
55 475 3 14 30 248 60 520 30 272 57 506 60 520 3 14 27 228 55 475 50 446 98
848 103 850 1 0 18 12 37 26 48 36 546 380 650 451 47 31 126 85 176 120 50
35 146 101 213 148 229 159 306 216 306 227 0 19 -215 251 -341 367 -301 278
-546 461 -872 650 -561 325 -1201 533 -1852 601 -184 19 -624 27 -800 15z"/>
</g>
</svg>
